# xmcd
#
# Track frame offsets: 
#        150
#        13810
#        27123
#        45304
#        57329
#        74815
#        92264
#
# Disc length: 1445 seconds
#
# Revision: 0
# Processed by: cddbd v1.5.2PL0 Copyright (c) Steve Scherf et al.
# Submitted via: ExactAudioCopy v0.99pb4
#
DISCID=5305a307
DTITLE=Rene Janssen - Cadillacs and Dusty Roads
DYEAR=2008
DGENRE=Country
TTITLE0=Cadillacs and Dusty Roads
TTITLE1=You Plant Your Fields
TTITLE2=Go Down Easy
TTITLE3=God Will
TTITLE4=Evangelina
TTITLE5=Give Me Wings
TTITLE6=The Lowlands
EXTD=
EXTT0=
EXTT1=
EXTT2=
EXTT3=
EXTT4=
EXTT5=
EXTT6=
PLAYORDER=
